<svg width="34" height="34" viewBox="0 0 34 34" fill="none" xmlns="http://www.w3.org/2000/svg">
<path d="M2.83326 16.9999C2.83326 9.17567 9.17568 2.83325 16.9999 2.83325C24.8242 2.83325 31.1666 9.17567 31.1666 16.9999C31.1666 24.8242 24.8242 31.1666 16.9999 31.1666H2.83326L6.98268 27.0172C5.66523 25.7031 4.62044 24.1417 3.90835 22.4226C3.19625 20.7035 2.83089 18.8607 2.83326 16.9999ZM9.67293 28.3333H16.9999C19.2415 28.3333 21.4326 27.6686 23.2964 26.4232C25.1601 25.1779 26.6128 23.4079 27.4706 21.337C28.3284 19.2661 28.5528 16.9873 28.1155 14.7889C27.6782 12.5904 26.5988 10.571 25.0138 8.98604C23.4288 7.40105 21.4094 6.32165 19.211 5.88435C17.0125 5.44705 14.7337 5.67149 12.6629 6.52928C10.592 7.38708 8.82193 8.8397 7.57661 10.7035C6.33129 12.5672 5.6666 14.7584 5.6666 16.9999C5.6666 20.0486 6.87218 22.9003 8.98585 25.014L10.989 27.0172L9.67293 28.3333ZM11.3333 18.4166H22.6666C22.6666 19.9195 22.0696 21.3608 21.0069 22.4235C19.9442 23.4862 18.5028 24.0833 16.9999 24.0833C15.497 24.0833 14.0557 23.4862 12.993 22.4235C11.9303 21.3608 11.3333 19.9195 11.3333 18.4166Z" fill="white"/>
</svg>
