<svg width="15" height="17" viewBox="0 0 15 17" fill="none" xmlns="http://www.w3.org/2000/svg">
<path d="M0.681828 17C0.500996 17 0.32757 16.9254 0.199703 16.7925C0.0718354 16.6597 0 16.4795 0 16.2917V0.708217C2.0285e-05 0.585129 0.0309145 0.46417 0.0896378 0.357264C0.148361 0.250358 0.232886 0.161194 0.334882 0.0985605C0.436878 0.0359273 0.552823 0.00198678 0.671291 8.46057e-05C0.789759 -0.00181757 0.906659 0.0283843 1.01047 0.0877129L14.647 7.87944C14.7539 7.94058 14.8431 8.03042 14.9052 8.13956C14.9672 8.24871 15 8.37316 15 8.49994C15 8.62672 14.9672 8.75117 14.9052 8.86032C14.8431 8.96946 14.7539 9.0593 14.647 9.12044L1.01047 16.9122C0.909797 16.9697 0.796749 17 0.681828 17Z" fill="black"/>
</svg>
