<svg width="34" height="34" viewBox="0 0 34 34" fill="none" xmlns="http://www.w3.org/2000/svg">
<path d="M31.3962 8.01256C30.3146 8.49096 29.1677 8.80515 27.9933 8.94473C29.2312 8.20443 30.1576 7.03933 30.6 5.66656C29.4383 6.3579 28.1648 6.8424 26.8373 7.10448C25.9457 6.15047 24.7639 5.51776 23.4755 5.30472C22.1872 5.09169 20.8646 5.31026 19.7133 5.92645C18.562 6.54265 17.6466 7.52195 17.1093 8.7121C16.572 9.90226 16.4429 11.2366 16.7422 12.5076C14.3864 12.3896 12.0818 11.7774 9.978 10.7108C7.87419 9.64429 6.01819 8.14721 4.53051 6.31681C4.00392 7.22128 3.7272 8.24947 3.72868 9.29606C3.72868 11.3502 4.77418 13.165 6.36368 14.2275C5.42303 14.1979 4.50308 13.9438 3.68051 13.4866V13.5602C3.6808 14.9283 4.1542 16.2542 5.02046 17.3131C5.88673 18.3719 7.09253 19.0987 8.43343 19.37C7.56022 19.6066 6.64461 19.6415 5.75593 19.472C6.13399 20.6496 6.87086 21.6794 7.86335 22.4174C8.85585 23.1553 10.0543 23.5644 11.2908 23.5874C10.0619 24.5526 8.65468 25.2661 7.14976 25.6871C5.64484 26.1082 4.07169 26.2284 2.52026 26.0411C5.2285 27.7828 8.38115 28.7074 11.6011 28.7044C22.4995 28.7044 28.4594 19.676 28.4594 11.8461C28.4594 11.5911 28.4523 11.3332 28.441 11.0811C29.6011 10.2426 30.6023 9.20401 31.3976 8.01398L31.3962 8.01256Z" fill="black"/>
</svg>
