<svg width="34" height="34" viewBox="0 0 34 34" fill="none" xmlns="http://www.w3.org/2000/svg">
<path d="M24.8272 16.1189C26.6164 16.6742 28.6082 18.0116 28.6082 20.3746C28.6082 24.2888 22.9699 29.2132 14.4926 29.2132C8.0255 29.2132 1.41675 26.0781 1.41675 20.9228C1.41675 18.2283 3.12241 15.1117 6.05916 12.1721C9.98758 8.24791 14.5648 6.45866 16.2861 8.18274C17.0468 8.94349 17.1191 10.2567 16.6317 11.8264C16.3796 12.6155 17.3755 12.1806 17.3755 12.1806C20.5488 10.8517 23.3198 10.7724 24.3299 12.2188C24.8682 12.9881 24.8158 14.069 24.3186 15.3213C24.0877 15.8979 24.3866 15.9886 24.8286 16.1189H24.8272ZM14.511 27.3658C19.6691 26.853 23.5791 23.6938 23.2476 20.3066C22.9118 16.9193 18.4564 14.5861 13.2983 15.0975C8.14166 15.6075 4.22741 18.7667 4.56175 22.1525C4.8975 25.544 9.35291 27.8744 14.511 27.3658ZM8.72675 20.4539C9.79491 18.2907 12.5687 17.0681 15.0252 17.7056C17.5653 18.3615 18.8602 20.7571 17.8246 23.0889C16.7706 25.4717 13.7417 26.7411 11.1733 25.9123C8.69133 25.1105 7.64158 22.6625 8.72675 20.4539ZM10.7752 24.1188C11.5799 24.4829 12.6523 24.1372 13.1496 23.3397C13.6397 22.535 13.3805 21.6156 12.573 21.2727C11.7754 20.937 10.7441 21.2841 10.2497 22.0562C9.74816 22.8311 9.98191 23.759 10.7752 24.1188ZM13.9004 21.5575C14.2107 21.6878 14.6102 21.5405 14.7901 21.2302C14.9643 20.9186 14.8524 20.5701 14.5379 20.4539C14.2319 20.3349 13.8494 20.4794 13.6695 20.7826C13.4952 21.0857 13.593 21.4314 13.9004 21.5575ZM28.1535 13.4584C28.1126 13.5878 28.0464 13.7079 27.9588 13.8116C27.8712 13.9153 27.7639 14.0006 27.6431 14.0626C27.5224 14.1246 27.3905 14.162 27.2552 14.1727C27.1198 14.1834 26.9837 14.1672 26.8547 14.125C26.7257 14.0827 26.6063 14.0153 26.5035 13.9267C26.4007 13.8381 26.3165 13.7299 26.2557 13.6085C26.195 13.4871 26.1589 13.3549 26.1495 13.2194C26.1402 13.084 26.1578 12.9481 26.2013 12.8195C26.3091 12.4916 26.3281 12.141 26.2564 11.8033C26.1848 11.4656 26.025 11.153 25.7933 10.8971C25.5611 10.6422 25.2661 10.4525 24.9378 10.3468C24.6095 10.2412 24.2593 10.2233 23.9219 10.295C23.7902 10.3232 23.6542 10.3251 23.5217 10.3008C23.3893 10.2764 23.2629 10.2262 23.1498 10.153C22.9215 10.0051 22.7612 9.77263 22.7043 9.50662C22.6474 9.2406 22.6984 8.96288 22.8463 8.73453C22.9941 8.50618 23.2267 8.34591 23.4927 8.28899C24.1826 8.14158 24.8992 8.17845 25.5704 8.39589C26.2415 8.61333 26.8436 9.00366 27.316 9.52764C27.7884 10.0516 28.1146 10.6908 28.2616 11.3808C28.4086 12.0708 28.3713 12.7874 28.1535 13.4584ZM22.6058 4.14383C24.0228 3.84186 25.4942 3.91786 26.8725 4.3642C28.2508 4.81053 29.4875 5.6115 30.4584 6.68674C31.43 7.76369 32.1012 9.07729 32.4045 10.4957C32.7079 11.914 32.6328 13.3872 32.1867 14.7674C32.1389 14.9166 32.062 15.0548 31.9605 15.1741C31.8589 15.2934 31.7348 15.3915 31.5952 15.4626C31.4556 15.5337 31.3033 15.5765 31.1471 15.5885C30.9909 15.6005 30.8339 15.5814 30.6851 15.5324C30.384 15.4344 30.134 15.221 29.99 14.9389C29.8461 14.6569 29.8199 14.3292 29.9172 14.0279C30.2343 13.0478 30.2879 12.0015 30.0726 10.9942C29.8572 9.98682 29.3805 9.05388 28.6904 8.28911C28.0003 7.52434 27.1211 6.95467 26.141 6.63734C25.161 6.32002 24.1147 6.26621 23.1073 6.48132C22.8048 6.52936 22.4954 6.45959 22.2427 6.28637C21.9901 6.11316 21.8134 5.84968 21.7492 5.55017C21.6849 5.25066 21.7379 4.93791 21.8973 4.6763C22.0566 4.41469 22.3102 4.22412 22.6058 4.14383Z" fill="black"/>
</svg>
