<svg width="34" height="34" viewBox="0 0 34 34" fill="none" xmlns="http://www.w3.org/2000/svg">
<path d="M30.5192 9.20558C31.1666 11.7301 31.1666 17.0001 31.1666 17.0001C31.1666 17.0001 31.1666 22.2701 30.5192 24.7946C30.1593 26.19 29.1068 27.2879 27.7737 27.6591C25.3526 28.3334 16.9999 28.3334 16.9999 28.3334C16.9999 28.3334 8.6515 28.3334 6.22617 27.6591C4.88742 27.2822 3.83625 26.1857 3.48067 24.7946C2.83325 22.2701 2.83325 17.0001 2.83325 17.0001C2.83325 17.0001 2.83325 11.7301 3.48067 9.20558C3.8405 7.81016 4.89309 6.71225 6.22617 6.34108C8.6515 5.66675 16.9999 5.66675 16.9999 5.66675C16.9999 5.66675 25.3526 5.66675 27.7737 6.34108C29.1124 6.71791 30.1636 7.81441 30.5192 9.20558ZM14.1666 21.9584L22.6666 17.0001L14.1666 12.0417V21.9584Z" fill="white"/>
</svg>
